<svg width="200" height="32" viewBox="0 0 200 32" fill="none" xmlns="http://www.w3.org/2000/svg">
<rect width="200" height="32" fill="#F5F5F5"/>
<g id="About">
<g clipPath="url(#clip0_2124_8623)">
<rect x="-64" y="-24" width="1440" height="4060" fill="white"/>
<g id="Navigation">
<rect width="1440" height="80" transform="translate(-64 -24)" fill="#030712"/>
<g id="logo">
<g id="Clip path group">
<mask id="mask0_2124_8623" style="mask-type:luminance" maskUnits="userSpaceOnUse" x="0" y="0" width="33" height="32">
<g id="72f9696f28">
<path id="Vector" d="M0 0H32.1272V32H0V0Z" fill="white"/>
</g>
</mask>
<g mask="url(#mask0_2124_8623)">
<g id="Group">
<g id="Clip path group_2">
<mask id="mask1_2124_8623" style="mask-type:luminance" maskUnits="userSpaceOnUse" x="0" y="0" width="32" height="32">
<g id="40fbd373c8">
<path id="Vector_2" d="M29.2375 17.3662C28.9934 16.8019 28.7952 16.6037 28.2309 16.3596C28.7952 16.1173 28.9934 15.9182 29.2375 15.3548C29.4798 15.9182 29.6789 16.1173 30.2423 16.3596C29.6789 16.6037 29.4798 16.8019 29.2375 17.3662ZM27.8535 26.2618C24.9593 29.5697 20.7816 31.5344 16.3883 31.6503C14.5214 31.7005 12.6883 31.427 10.9365 30.8385L11.2801 21.2843C13.1236 21.1069 15.1472 20.7347 17.1413 20.2067C19.3803 19.6087 21.5241 18.8349 23.3426 17.9651L28.0483 26.035C27.9842 26.1112 27.9193 26.1873 27.8535 26.2635M3.70877 19.3707C3.34872 18.0162 5.33504 16.1354 8.90521 14.4365C8.85588 14.6979 8.82039 14.9601 8.79962 15.2163C6.68002 16.3657 5.64402 17.4804 5.87511 18.3563C6.10187 19.208 7.52128 19.6398 9.63656 19.6398C10.5921 19.6398 11.6904 19.5507 12.8839 19.3741C14.0783 19.1967 15.3687 18.931 16.7077 18.5753C22.3481 17.0754 26.4332 14.6312 26.0022 13.011C25.7651 12.1195 24.2738 11.6678 21.802 11.7379C21.6574 11.5267 21.5051 11.3276 21.3467 11.1459C21.3407 11.1363 21.3329 11.1286 21.3268 11.1199C25.3289 10.8031 28.0249 11.4471 28.3884 12.8171C28.4161 12.9193 28.4299 13.0266 28.4299 13.1356C28.4299 14.4304 26.5336 16.1346 23.3365 17.6812C21.5086 18.5666 19.3431 19.3534 17.0729 19.9549C15.0537 20.4906 13.0042 20.8663 11.1417 21.0385C6.99679 21.4193 4.07834 20.7659 3.70877 19.3724M7.45464 25.9588C7.16643 25.2924 6.93275 25.0596 6.26718 24.7705C6.93275 24.4814 7.16643 24.2503 7.45464 23.583C7.74198 24.2503 7.9748 24.4814 8.64297 24.7705C7.97653 25.0596 7.74198 25.2924 7.45464 25.9588ZM7.66496 6.18397C8.10549 7.20439 8.46467 7.56184 9.48336 8.00238C8.46294 8.44378 8.10376 8.80123 7.66496 9.82165C7.22528 8.80123 6.8661 8.44378 5.84568 8.00238C6.8661 7.56184 7.22528 7.20439 7.66496 6.18397ZM8.8126 16.4669C8.82039 16.5431 8.82905 16.6193 8.83684 16.6963C8.84463 16.7742 8.85848 16.8486 8.87146 16.9248C8.90867 17.155 8.95801 17.3818 9.01686 17.6111C9.25141 18.4922 12.8458 18.0309 16.2732 17.1204C19.7005 16.209 23.0474 14.8251 22.8146 13.9457C22.7912 13.8575 22.7661 13.7718 22.7402 13.6852C22.7229 13.6281 22.7038 13.5701 22.6856 13.5156C22.6744 13.4801 22.6623 13.4464 22.651 13.4117C22.6251 13.339 22.5982 13.2663 22.5688 13.1928C22.5662 13.1824 22.5593 13.1677 22.555 13.1555C22.5299 13.0889 22.5039 13.0249 22.4745 12.9582C22.4632 12.9322 22.4511 12.9028 22.4381 12.876C22.3715 12.7237 22.297 12.5731 22.2191 12.4259C22.1819 12.3576 22.1447 12.2892 22.1075 12.2234C22.1049 12.2208 22.1032 12.2148 22.0997 12.2113C22.0677 12.1542 22.0331 12.0979 21.9993 12.0425C21.9881 12.0252 21.9759 12.0079 21.9664 11.9906C24.1483 11.9516 25.5582 12.3524 25.7512 13.0768C26.1312 14.5049 21.9569 16.9092 16.6393 18.3226C11.3217 19.7359 6.50606 19.7203 6.12437 18.2879C5.93569 17.5782 6.92496 16.5509 8.78145 15.5209V15.5287C8.77798 15.6066 8.77625 15.6837 8.77625 15.7616C8.77625 15.9961 8.7875 16.2307 8.81087 16.4652M14.1519 9.13012C14.7447 8.97347 15.3462 8.89557 15.9391 8.89557C17.7021 8.89557 19.4071 9.57585 20.7175 10.8507C20.8075 10.9381 20.8889 11.0186 20.9616 11.0991C21.0265 11.1692 21.0905 11.2393 21.1511 11.312C21.3156 11.505 21.4774 11.7162 21.6263 11.9413C22.0504 12.5705 22.3671 13.2663 22.5645 14.0133C22.5671 14.0236 22.5671 14.0366 22.5671 14.047C22.5671 14.5317 20.2242 15.8022 16.2065 16.8685C12.0876 17.9625 9.38989 17.9997 9.26872 17.5427C9.07312 16.8071 9.00042 16.055 9.05321 15.3054C9.07139 15.0129 9.11207 14.7152 9.17265 14.4218C9.18477 14.3612 9.19775 14.3006 9.2116 14.2383C9.23583 14.1232 9.26439 14.0193 9.29209 13.9198C9.949 11.589 11.8098 9.75155 14.1519 9.13012ZM31.9603 15.5841C31.7258 6.79155 24.408 -0.147135 15.6145 0.0882798C6.8211 0.32456 -0.115858 7.64233 0.118692 16.4358C0.301312 23.2689 4.76035 28.9811 10.8673 31.0774C10.8716 31.0791 10.8734 31.0808 10.8777 31.0826C12.6277 31.6798 14.5102 31.9827 16.4653 31.9299C21.0905 31.807 25.2016 29.7229 28.0249 26.4963C28.1114 26.3968 28.1971 26.2955 28.2811 26.196C30.6724 23.3277 32.0676 19.6087 31.9603 15.5833" fill="white"/>
</g>
</mask>
<g mask="url(#mask1_2124_8623)">
<g id="Group_2">
<path id="Vector_3" d="M-0.115845 -0.147135H32.0313V32H-0.115845V-0.147135Z" fill="white"/>
</g>
</g>
</g>
</g>
</g>
</g>
<g id="Clip path group_3">
<mask id="mask2_2124_8623" style="mask-type:luminance" maskUnits="userSpaceOnUse" x="41" y="3" width="26" height="26">
<g id="bb3e8350ed">
<path id="Vector_4" d="M41.826 3.93195H66.0271V28.4696H41.826V3.93195Z" fill="white"/>
</g>
</mask>
<g mask="url(#mask2_2124_8623)">
<g id="Group_3">
<g id="Clip path group_4">
<mask id="mask3_2124_8623" style="mask-type:luminance" maskUnits="userSpaceOnUse" x="41" y="3" width="25" height="26">
<g id="025a93303d">
<path id="Vector_5" d="M57.5236 19.9454H50.1547L52.6162 14.4676L53.8686 11.6227L55.0932 14.5005L57.5236 19.9454ZM53.5284 3.93195L41.826 28.4021H46.4244L48.4791 23.7051H59.1654L61.2201 28.4021H65.9509L54.1801 3.93195H53.5284Z" fill="white"/>
</g>
</mask>
<g mask="url(#mask3_2124_8623)">
<g id="Group_4">
<path id="Vector_6" d="M41.0497 3.1556H79.875V29.5576H41.0497V3.1556Z" fill="white"/>
</g>
</g>
</g>
</g>
</g>
</g>
<g id="Clip path group_5">
<mask id="mask4_2124_8623" style="mask-type:luminance" maskUnits="userSpaceOnUse" x="66" y="12" width="14" height="17">
<g id="1ae8ec8d54">
<path id="Vector_7" d="M66.9851 12.4735H79.0995V28.7804H66.9851V12.4735Z" fill="white"/>
</g>
</mask>
<g mask="url(#mask4_2124_8623)">
<g id="Group_5">
<g id="Clip path group_6">
<mask id="mask5_2124_8623" style="mask-type:luminance" maskUnits="userSpaceOnUse" x="67" y="12" width="13" height="17">
<g id="c6b25c3b56">
<path id="Vector_8" d="M74.8386 19.2417C74.0822 18.9622 73.8849 18.899 73.8148 18.8782C72.9051 18.5606 72.2447 18.268 71.8518 18.0101C71.5056 17.7834 71.3377 17.4579 71.3377 17.0148C71.3377 16.7257 71.3377 15.8455 73.421 15.8455C74.1523 15.8455 74.8248 15.9468 75.4177 16.1441C76.0001 16.338 76.4242 16.5665 76.6804 16.8209L76.9184 17.0581L78.4105 13.7674L78.2461 13.6575C77.7675 13.339 77.0777 13.0751 76.1957 12.8734C75.3233 12.6743 74.4223 12.5731 73.5188 12.5731C71.6735 12.5731 70.1736 12.9772 69.0614 13.7752C67.9259 14.5905 67.3495 15.7339 67.3495 17.1766C67.3495 18.4325 67.758 19.4607 68.5629 20.231C69.341 20.977 70.4082 21.6244 71.7419 22.1567L72.9813 22.6137C73.8494 22.9322 74.4578 23.2083 74.7876 23.435C75.0697 23.6306 75.2082 23.8981 75.2082 24.2538C75.2082 24.5593 75.2082 25.488 72.9302 25.488C71.3135 25.488 69.8551 25.0405 68.5958 24.1603L68.3595 23.9959L67.0033 27.1982L67.1452 27.3081C67.6524 27.7028 68.4669 28.0308 69.6301 28.313C70.7621 28.5882 71.8726 28.7276 72.9302 28.7276C74.688 28.7276 76.1628 28.3303 77.3174 27.5462C78.4988 26.743 79.0986 25.5469 79.0986 23.9942C79.0986 22.85 78.7368 21.8962 78.0219 21.1588C77.3278 20.4422 76.2581 19.7982 74.8369 19.2434" fill="white"/>
</g>
</mask>
<g mask="url(#mask5_2124_8623)">
<g id="Group_6">
<path id="Vector_9" d="M41.0496 3.15559H79.8749V29.5576H41.0496V3.15559Z" fill="white"/>
</g>
</g>
</g>
</g>
</g>
</g>
<g id="Clip path group_7">
<mask id="mask6_2124_8623" style="mask-type:luminance" maskUnits="userSpaceOnUse" x="81" y="6" width="11" height="23">
<g id="ffc37d4554">
<path id="Vector_10" d="M81.2762 6.02819H91.5073V28.5467H81.2762V6.02819Z" fill="white"/>
</g>
</mask>
<g mask="url(#mask6_2124_8623)">
<g id="Group_7">
<g id="Clip path group_8">
<mask id="mask7_2124_8623" style="mask-type:luminance" maskUnits="userSpaceOnUse" x="81" y="6" width="11" height="23">
<g id="ad131a113a">
<path id="Vector_11" d="M87.938 6.02819L83.9177 6.91359V12.9669H81.2762V16.3025H83.9177V28.4021H87.938V16.3025H91.3956V12.9669H87.938V6.02819Z" fill="white"/>
</g>
</mask>
<g mask="url(#mask7_2124_8623)">
<g id="Group_8">
<path id="Vector_12" d="M81.2762 6.02819H91.3705V28.3917H81.2762V6.02819Z" fill="white"/>
</g>
</g>
</g>
</g>
</g>
</g>
<g id="Clip path group_9">
<mask id="mask8_2124_8623" style="mask-type:luminance" maskUnits="userSpaceOnUse" x="94" y="12" width="10" height="17">
<g id="1b65837d38">
<path id="Vector_13" d="M94.0277 12.5748H103.915V28.416H94.0277V12.5748Z" fill="white"/>
</g>
</mask>
<g mask="url(#mask8_2124_8623)">
<g id="Group_9">
<g id="Clip path group_10">
<mask id="mask9_2124_8623" style="mask-type:luminance" maskUnits="userSpaceOnUse" x="94" y="12" width="10" height="17">
<g id="267011ac34">
<path id="Vector_14" d="M102.153 12.5748C101.105 12.5748 100.157 12.8976 99.3358 13.5381C98.8001 13.9553 98.3569 14.465 98.0159 15.0596V12.966H94.0277V28.4021H98.0159V20.4725C98.0159 19.1197 98.4089 18.127 99.1817 17.5246C99.9719 16.9075 100.863 16.5959 101.827 16.5959C102.617 16.5959 102.881 16.6937 102.97 16.7526L103.279 16.9594L103.841 12.8699L103.692 12.7955C103.395 12.6466 102.892 12.5748 102.153 12.5748Z" fill="white"/>
</g>
</mask>
<g mask="url(#mask9_2124_8623)">
<g id="Group_10">
<path id="Vector_15" d="M93.2505 11.7984H122.137V29.503H93.2505V11.7984Z" fill="white"/>
</g>
</g>
</g>
</g>
</g>
</g>
<g id="Clip path group_11">
<mask id="mask10_2124_8623" style="mask-type:luminance" maskUnits="userSpaceOnUse" x="105" y="12" width="17" height="17">
<g id="c82c3c4bfe">
<path id="Vector_16" d="M105.245 12.5748H121.516V28.8037H105.245V12.5748Z" fill="white"/>
</g>
</mask>
<g mask="url(#mask10_2124_8623)">
<g id="Group_11">
<g id="Clip path group_12">
<mask id="mask11_2124_8623" style="mask-type:luminance" maskUnits="userSpaceOnUse" x="105" y="12" width="17" height="17">
<g id="3c8528b7aa">
<path id="Vector_17" d="M113.469 25.3919C112.269 25.3919 111.314 24.9557 110.548 24.0547C109.784 23.1572 109.398 22.0278 109.398 20.7001C109.398 19.3257 109.76 18.1676 110.472 17.2571C111.182 16.3518 112.098 15.9104 113.274 15.9104C114.493 15.9104 115.448 16.3579 116.19 17.2762C116.935 18.1971 117.313 19.349 117.313 20.7001C117.313 22.0546 116.962 23.191 116.27 24.0798C115.582 24.9635 114.665 25.3919 113.469 25.3919ZM117.615 13.6515C116.399 12.9366 114.972 12.5748 113.372 12.5748C111.772 12.5748 110.339 12.9366 109.113 13.6497C107.885 14.3638 106.928 15.3504 106.27 16.5786C105.613 17.8024 105.281 19.1673 105.281 20.6352C105.281 22.1247 105.619 23.5008 106.287 24.7255C106.956 25.9545 107.919 26.9386 109.146 27.6535C110.372 28.3658 111.794 28.7276 113.372 28.7276C114.949 28.7276 116.368 28.3658 117.582 27.6517C118.796 26.9368 119.755 25.9528 120.424 24.7255C121.092 23.5008 121.43 22.1247 121.43 20.6352C121.43 19.169 121.097 17.8041 120.439 16.5786C119.781 15.3504 118.829 14.3655 117.613 13.6515" fill="white"/>
</g>
</mask>
<g mask="url(#mask11_2124_8623)">
<g id="Group_12">
<path id="Vector_18" d="M93.2505 11.7984H122.137V29.503H93.2505V11.7984Z" fill="white"/>
</g>
</g>
</g>
</g>
</g>
</g>
<g id="Clip path group_13">
<mask id="mask12_2124_8623" style="mask-type:luminance" maskUnits="userSpaceOnUse" x="124" y="3" width="12" height="26">
<g id="9aff925818">
<path id="Vector_19" d="M124.031 3.57363H135.057V28.422H124.031V3.57363Z" fill="white"/>
</g>
</mask>
<g mask="url(#mask12_2124_8623)">
<g id="Group_13">
<g id="Clip path group_14">
<mask id="mask13_2124_8623" style="mask-type:luminance" maskUnits="userSpaceOnUse" x="124" y="3" width="12" height="26">
<g id="ec6acfd585">
<path id="Vector_20" d="M132.254 3.57363C130.365 3.57363 128.909 4.14399 127.921 5.26827C126.942 6.38303 126.445 7.96516 126.445 9.97052V12.966H124.031V16.2367H126.445V28.4021H130.367V16.2367H133.89V12.966H130.367V9.84329C130.387 8.08806 131.037 7.23555 132.352 7.23555C132.683 7.23555 132.992 7.30825 133.273 7.45452C133.56 7.60338 133.773 7.75571 133.907 7.90631L134.216 8.25943L135.031 4.2894L134.858 4.21323C133.899 3.78914 133.022 3.57363 132.254 3.57363Z" fill="white"/>
</g>
</mask>
<g mask="url(#mask13_2124_8623)">
<g id="Group_14">
<path id="Vector_21" d="M123.254 2.79728H152.14V29.5091H123.254V2.79728Z" fill="white"/>
</g>
</g>
</g>
</g>
</g>
</g>
<g id="Clip path group_15">
<mask id="mask14_2124_8623" style="mask-type:luminance" maskUnits="userSpaceOnUse" x="136" y="12" width="16" height="17">
<g id="e5819eeb42">
<path id="Vector_22" d="M136.264 12.4259H151.33V28.7327H136.264V12.4259Z" fill="white"/>
</g>
</mask>
<g mask="url(#mask14_2124_8623)">
<g id="Group_15">
<g id="Clip path group_16">
<mask id="mask15_2124_8623" style="mask-type:luminance" maskUnits="userSpaceOnUse" x="136" y="12" width="16" height="17">
<g id="d543b9ae38">
<path id="Vector_23" d="M144.158 16.0091C145.224 16.0091 146.049 16.2679 146.611 16.7794C147.131 17.2528 147.401 18.0759 147.415 19.2279H140.485C140.869 17.0633 142.074 16.0091 144.158 16.0091ZM144.256 12.5748C142.747 12.5748 141.37 12.9089 140.166 13.5658C138.958 14.2262 137.999 15.1843 137.317 16.4124C136.637 17.638 136.294 19.079 136.294 20.7001C136.294 22.1429 136.588 23.4878 137.165 24.6978C137.748 25.9199 138.667 26.9092 139.898 27.6362C141.124 28.3615 142.668 28.7276 144.485 28.7276C145.825 28.7276 146.989 28.5925 147.939 28.3277C148.892 28.062 149.659 27.7452 150.219 27.386L150.385 27.2805L149.13 24.3533L148.906 24.4745C148.359 24.7679 147.752 25.0025 147.1 25.1712C146.449 25.3391 145.601 25.4248 144.581 25.4248C143.382 25.4248 142.438 25.147 141.777 24.5983C141.165 24.0902 140.735 23.2645 140.493 22.1403H151.183L151.204 21.9317C151.27 21.2964 151.304 20.6741 151.304 20.0804C151.304 17.728 150.719 15.8723 149.566 14.5611C148.404 13.243 146.618 12.5748 144.254 12.5748" fill="white"/>
</g>
</mask>
<g mask="url(#mask15_2124_8623)">
<g id="Group_16">
<path id="Vector_24" d="M123.255 2.79729H152.141V29.5091H123.255V2.79729Z" fill="white"/>
</g>
</g>
</g>
</g>
</g>
</g>
<g id="Clip path group_17">
<mask id="mask16_2124_8623" style="mask-type:luminance" maskUnits="userSpaceOnUse" x="153" y="12" width="18" height="17">
<g id="eb3b268aa6">
<path id="Vector_25" d="M153.97 12.5748H170.607V28.8037H153.97V12.5748Z" fill="white"/>
</g>
</mask>
<g mask="url(#mask16_2124_8623)">
<g id="Group_17">
<g id="Clip path group_18">
<mask id="mask17_2124_8623" style="mask-type:luminance" maskUnits="userSpaceOnUse" x="153" y="12" width="18" height="17">
<g id="6b8e5a3be8">
<path id="Vector_26" d="M165.9 18.2654C166.272 18.9674 166.461 19.7749 166.461 20.6681V20.8957C166.461 22.2173 166.056 23.2983 165.256 24.1075C164.457 24.9168 163.46 25.327 162.291 25.327C160.938 25.327 159.935 24.9125 159.226 24.0565C158.516 23.2005 158.154 22.0606 158.154 20.6681C158.154 19.2962 158.519 18.1676 159.241 17.3117C159.953 16.4687 160.979 16.0411 162.291 16.0411C163.048 16.0411 163.753 16.2384 164.386 16.6271C165.02 17.0148 165.531 17.5678 165.9 18.2654ZM166.775 14.9056C166.592 14.6745 166.363 14.4417 166.095 14.2115C165.556 13.7519 164.888 13.3607 164.105 13.0474C163.321 12.7349 162.469 12.5748 161.574 12.5748C160.038 12.5748 158.682 12.9149 157.542 13.5857C156.399 14.2582 155.507 15.212 154.893 16.4202C154.281 17.6206 153.97 19.0383 153.97 20.6352C153.97 22.2562 154.326 23.6947 155.03 24.9107C155.733 26.1267 156.684 27.0788 157.856 27.7366C159.028 28.3952 160.322 28.7293 161.704 28.7293C162.959 28.7293 164.109 28.416 165.12 27.7989C165.835 27.3609 166.399 26.8685 166.806 26.3267L166.857 28.403H170.643V12.966H166.826L166.775 14.9056Z" fill="white"/>
</g>
</mask>
<g mask="url(#mask17_2124_8623)">
<g id="Group_18">
<path id="Vector_27" d="M153.97 12.5748H170.588V28.7258H153.97V12.5748Z" fill="white"/>
</g>
</g>
</g>
</g>
</g>
</g>
<g id="Clip path group_19">
<mask id="mask18_2124_8623" style="mask-type:luminance" maskUnits="userSpaceOnUse" x="174" y="12" width="13" height="17">
<g id="13bed2cfe0">
<path id="Vector_28" d="M174.693 12.5748H186.806V28.8037H174.693V12.5748Z" fill="white"/>
</g>
</mask>
<g mask="url(#mask18_2124_8623)">
<g id="Group_19">
<g id="Clip path group_20">
<mask id="mask19_2124_8623" style="mask-type:luminance" maskUnits="userSpaceOnUse" x="174" y="12" width="13" height="17">
<g id="ce9a537dec">
<path id="Vector_29" d="M182.526 19.2417C181.77 18.9622 181.573 18.899 181.503 18.8782C180.593 18.5606 179.933 18.268 179.54 18.0101C179.193 17.7834 179.026 17.4579 179.026 17.0148C179.026 16.7257 179.026 15.8455 181.109 15.8455C181.84 15.8455 182.513 15.9468 183.105 16.1441C183.688 16.338 184.112 16.5665 184.368 16.8209L184.606 17.0581L186.1 13.7675L185.936 13.6575C185.457 13.339 184.767 13.0751 183.885 12.8743C183.011 12.6761 182.11 12.5748 181.206 12.5748C179.361 12.5748 177.861 12.979 176.749 13.777C175.614 14.5905 175.038 15.7356 175.038 17.1784C175.038 18.4342 175.447 19.4624 176.251 20.2327C177.029 20.9779 178.096 21.6244 179.43 22.1584L180.669 22.6154C181.537 22.9331 182.146 23.21 182.477 23.4368C182.759 23.6324 182.898 23.8998 182.898 24.2564C182.898 24.5628 182.898 25.4915 180.62 25.4915C179.001 25.4915 177.543 25.044 176.285 24.1638L176.049 23.9976L174.693 27.2L174.835 27.3099C175.342 27.7045 176.156 28.0317 177.32 28.3147C178.452 28.5899 179.562 28.7293 180.62 28.7293C182.377 28.7293 183.852 28.332 185.007 27.5479C186.188 26.7447 186.788 25.5486 186.788 23.9959C186.788 22.8508 186.426 21.8979 185.711 21.1597C185.017 20.4439 183.948 19.7991 182.526 19.2452" fill="white"/>
</g>
</mask>
<g mask="url(#mask19_2124_8623)">
<g id="Group_20">
<path id="Vector_30" d="M174.693 12.5748H186.806V28.7258H174.693V12.5748Z" fill="white"/>
</g>
</g>
</g>
</g>
</g>
</g>
<g id="Clip path group_21">
<mask id="mask20_2124_8623" style="mask-type:luminance" maskUnits="userSpaceOnUse" x="188" y="6" width="12" height="23">
<g id="0068433f26">
<path id="Vector_31" d="M188.964 6.02819H199.083V28.5467H188.964V6.02819Z" fill="white"/>
</g>
</mask>
<g mask="url(#mask20_2124_8623)">
<g id="Group_21">
<g id="Clip path group_22">
<mask id="mask21_2124_8623" style="mask-type:luminance" maskUnits="userSpaceOnUse" x="188" y="6" width="12" height="23">
<g id="4733286c89">
<path id="Vector_32" d="M195.627 12.9669V6.02819L191.605 6.91359V12.9669H188.964V16.3025H191.605V28.4021H195.627V16.3025H199.083V12.9669H195.627Z" fill="white"/>
</g>
</mask>
<g mask="url(#mask21_2124_8623)">
<g id="Group_22">
<path id="Vector_33" d="M188.964 6.02819H199.059V28.3917H188.964V6.02819Z" fill="white"/>
</g>
</g>
</g>
</g>
</g>
</g>
</g>
</g>
</g>
<rect x="-63.5" y="-23.5" width="1439" height="4059" stroke="#030712"/>
</g>
<defs>
<clipPath id="clip0_2124_8623">
<rect x="-64" y="-24" width="1440" height="4060" fill="white"/>
</clipPath>
</defs>
</svg>
