 <svg
              className="fill-[#030712] dark:fill-white hover:cursor-pointer"
              width="16"
              height="16"
              viewBox="0 0 16 16"
              fill="none"
              xmlns="http://www.w3.org/2000/svg"
            >
              <g clipPath="url(#clip0_2313_433)">
                <path
                  fillRule="evenodd"
                  clipRule="evenodd"
                  d="M0.666748 0.666748H15.3334V15.3334H0.666748V0.666748ZM8.00008 5.66675C6.71141 5.66675 5.66675 6.71141 5.66675 8.00008C5.66675 9.28875 6.71141 10.3334 8.00008 10.3334C9.28875 10.3334 10.3334 9.28875 10.3334 8.00008C10.3334 6.71141 9.28875 5.66675 8.00008 5.66675ZM4.33341 8.00008C4.33341 5.97503 5.97503 4.33341 8.00008 4.33341C10.0251 4.33341 11.6667 5.97503 11.6667 8.00008C11.6667 10.0251 10.0251 11.6667 8.00008 11.6667C5.97503 11.6667 4.33341 10.0251 4.33341 8.00008ZM13.0001 3.00008H11.6667V4.33341H13.0001V3.00008Z"
                />
              </g>
              <defs>
                <clipPath id="clip0_2313_433">
                  <rect width="16" height="16" fill="white" />
                </clipPath>
              </defs>
            </svg>