<svg xmlns="http://www.w3.org/2000/svg" xmlns:xlink="http://www.w3.org/1999/xlink" version="1.1" x="0px" y="0px" viewBox="0 0 100 125" style="enable-background:new 0 0 100 100;" xml:space="preserve"><g><path d="M44.3151588,86.1303177c-23.0571594,0-41.8151588-18.7579956-41.8151588-41.8151588S21.2579994,2.5,44.3151588,2.5   s41.8151588,18.7579994,41.8151588,41.8151588S67.3723221,86.1303177,44.3151588,86.1303177z M44.3151588,6.5425534   c-20.8276348,0-37.7726059,16.9449692-37.7726059,37.7726059S23.487524,82.0877686,44.3151588,82.0877686   s37.7726097-16.9449692,37.7726097-37.7726097S65.1427994,6.5425534,44.3151588,6.5425534z"/></g><g><path d="M95.4787216,97.5c-0.5171585,0-1.0343246-0.1973877-1.4291077-0.5921707L71.310257,74.1684647   c-0.789566-0.7895584-0.789566-2.0686493,0-2.8582077c0.7895584-0.7895584,2.0686493-0.7895584,2.8582077,0l22.7393646,22.739357   c0.7895584,0.789566,0.7895584,2.0686569,0,2.8582153C96.5130463,97.3026123,95.9958878,97.5,95.4787216,97.5z"/></g></svg>