<svg
              className="fill-[#030712] dark:fill-white hover:cursor-pointer"
              width="16"
              height="16"
              viewBox="0 0 16 16"
              fill="none"
              xmlns="http://www.w3.org/2000/svg"
            >
              <g clipPath="url(#clip0_2313_424)">
                <path
                  fillRule="evenodd"
                  clipRule="evenodd"
                  d="M8.00008 15.3334C12.0501 15.3334 15.3334 12.0501 15.3334 8.00008C15.3334 3.94999 12.0501 0.666748 8.00008 0.666748C3.94999 0.666748 0.666748 3.94999 0.666748 8.00008C0.666748 9.41121 1.06531 10.7292 1.75602 11.8477L0.666748 15.3334L4.15242 14.2441C5.27093 14.9348 6.58896 15.3334 8.00008 15.3334ZM6.89315 4.60881L7.70508 7.45068L6.3514 8.25862C6.54852 8.54562 6.77481 8.81895 7.03035 9.07448C7.28588 9.33008 7.55922 9.55635 7.84622 9.75342L8.65415 8.39975L11.496 9.21168L11.189 11.7742L10.7207 11.7482C9.69801 11.6916 8.68501 11.4032 7.76741 10.8825C7.24995 10.5889 6.76342 10.2218 6.32323 9.78162C5.88302 9.34142 5.51588 8.85488 5.22227 8.33741C4.70161 7.41981 4.41324 6.4068 4.35659 5.38411L4.33065 4.91579L6.89315 4.60881Z"
                  
                />
              </g>
              <defs>
                <clipPath id="clip0_2313_424">
                  <rect width="16" height="16" fill="white" />
                </clipPath>
              </defs>
            </svg>